<svg width="27" height="26" viewBox="0 0 27 26" fill="none" xmlns="http://www.w3.org/2000/svg">
<g id="Group">
<path id="Vector" d="M13.4049 0C9.8495 0.000668091 6.43992 1.3714 3.92606 3.81073C1.41222 6.25003 -6.66901e-08 9.55819 0 13.0076C0.00344146 16.4545 1.41726 19.7592 3.93082 22.1954C6.44435 24.6316 9.85199 26 13.4049 26C16.9604 26 20.3703 24.6299 22.8846 22.1911C25.3989 19.7522 26.8118 16.4443 26.8125 12.995C26.8084 9.54753 25.394 6.24263 22.8802 3.80611C20.3663 1.36959 16.9584 0.000665273 13.4049 0ZM13.4049 22.556C10.7955 22.5534 8.29374 21.5465 6.44859 19.7564C4.60345 17.9663 3.56563 15.5392 3.56288 13.0076C3.56905 10.4768 4.60788 8.0513 6.45221 6.26152C8.29653 4.47171 10.7963 3.46325 13.4049 3.45659C16.014 3.46258 18.5145 4.47077 20.3594 6.26062C22.2043 8.05047 23.2435 10.4763 23.2496 13.0076C23.2434 15.5374 22.2037 17.9617 20.3584 19.7492C18.5131 21.5366 16.0126 22.5414 13.4049 22.5434V22.556Z" fill="white"/>
<path id="Vector_2" d="M22.4802 4.18917C21.2914 3.02881 19.8771 2.10887 18.3191 1.48266C16.7611 0.856453 15.0906 0.536418 13.4043 0.541101C11.7158 0.535027 10.0428 0.854379 8.48256 1.48062C6.92233 2.10686 5.50581 3.02752 4.31526 4.18917C3.11767 5.34402 2.16855 6.71825 1.52303 8.232C0.877519 9.74572 0.548481 11.3688 0.555027 13.007C0.548481 14.6452 0.877519 16.2683 1.52303 17.782C2.16855 19.2957 3.11767 20.67 4.31526 21.8248C5.50581 22.9865 6.92233 23.9071 8.48256 24.5334C10.0428 25.1596 11.7158 25.479 13.4043 25.4729C15.0906 25.4776 16.7611 25.1575 18.3191 24.5313C19.8771 23.9051 21.2914 22.9852 22.4802 21.8248C23.6763 20.6715 24.6245 19.2993 25.27 17.7878C25.9154 16.2764 26.2453 14.6556 26.2405 13.0196C26.2488 11.3793 25.9205 9.75381 25.275 8.23778C24.6294 6.72179 23.6794 5.3455 22.4802 4.18917ZM13.4043 22.5428C10.7948 22.5402 8.29304 21.5333 6.4479 19.7432C4.60275 17.9531 3.56493 15.526 3.56218 12.9944C3.56835 10.4636 4.60718 8.03813 6.45151 6.24836C8.29584 4.45855 10.7956 3.45008 13.4043 3.44343C16.0133 3.44942 18.5138 4.45761 20.3587 6.24745C22.2036 8.0373 23.2428 10.4632 23.2489 12.9944C23.2462 15.5264 22.208 17.954 20.3623 19.7441C18.5166 21.5343 16.0142 22.5409 13.4043 22.5428Z" fill="white"/>
<path id="Vector_3" d="M13.4035 4.13672C10.9828 4.13939 8.66197 5.0735 6.95025 6.73415C5.23853 8.3948 4.2757 10.6463 4.27295 12.9949C4.2757 15.3434 5.23853 17.5949 6.95025 19.2556C8.66197 20.9162 10.9828 21.8503 13.4035 21.853C15.8247 21.851 18.1461 20.9172 19.8584 19.2565C21.5707 17.5958 22.5339 15.3438 22.5366 12.9949C22.5339 10.6459 21.5707 8.39397 19.8584 6.73325C18.1461 5.07256 15.8247 4.13871 13.4035 4.13672ZM18.9919 7.98633H18.7608C18.4853 7.98633 18.2211 8.09251 18.0263 8.2815C17.8315 8.47049 17.7221 8.72682 17.7221 8.99407V18.3662H17.2624L10.0535 10.0169C10.0488 10.0121 10.0427 10.0087 10.036 10.0071C10.0293 10.0055 10.0223 10.0058 10.0158 10.0079C10.0093 10.01 10.0035 10.0139 9.99917 10.019C9.99481 10.0242 9.99206 10.0305 9.99124 10.0371V16.4842C9.99124 16.8023 10.1215 17.1073 10.3533 17.3322C10.5851 17.5571 10.8995 17.6834 11.2273 17.6834H11.5104V18.0966H7.81246V17.6834H8.1916C8.46709 17.6834 8.73131 17.5773 8.92611 17.3883C9.12091 17.1993 9.23036 16.9429 9.23036 16.6757V9.06965L8.71098 8.46251L8.51361 8.23576C8.44732 8.15751 8.36413 8.09439 8.26987 8.05086C8.17562 8.00732 8.07265 7.98442 7.96827 7.9838H7.80985V7.52779H11.2663L16.8937 14.053C16.9015 14.0625 16.9122 14.0695 16.9242 14.0727C16.9363 14.076 16.9492 14.0756 16.961 14.0714C16.9727 14.0672 16.9829 14.0595 16.9899 14.0494C16.9969 14.0394 17.0005 14.0274 17.0001 14.0152V9.11503C17.0001 8.81566 16.8775 8.52859 16.6594 8.31691C16.4412 8.10523 16.1453 7.98633 15.8367 7.98633H15.4862V7.53032H18.9893L18.9919 7.98633Z" fill="white"/>
</g>
</svg>
